<svg width="47" height="47" viewBox="0 0 47 47" fill="none" xmlns="http://www.w3.org/2000/svg">
<g clip-path="url(#clip0_522_821)">
<path d="M1.82873 21.8467L8.45277 21.867C8.59404 21.867 8.72952 21.8108 8.82941 21.7107C8.9293 21.6107 8.98542 21.475 8.98542 21.3336C8.98542 21.1921 8.9293 21.0565 8.82941 20.9564C8.72952 20.8564 8.59404 20.8002 8.45277 20.8002L1.83299 20.7799L4.53885 18.1227C4.58996 18.0739 4.63088 18.0155 4.65923 17.9507C4.68758 17.886 4.7028 17.8163 4.70401 17.7456C4.70521 17.6749 4.69237 17.6047 4.66624 17.539C4.64011 17.4734 4.6012 17.4136 4.55178 17.3631C4.50237 17.3126 4.44342 17.2725 4.37838 17.245C4.31334 17.2176 4.24349 17.2033 4.1729 17.2031C4.10231 17.2029 4.03239 17.2168 3.9672 17.2439C3.902 17.271 3.84284 17.3108 3.79314 17.361L0.160469 20.9304C0.0761117 21.0137 0.0219271 21.1229 0.00649107 21.2405C-0.00894491 21.3582 0.0152492 21.4777 0.0752445 21.58C0.143424 21.6973 0.00599986 21.532 3.76864 25.2806C3.87115 25.3673 4.00256 25.412 4.13661 25.4059C4.27066 25.3998 4.39746 25.3433 4.49166 25.2476C4.58587 25.1519 4.64055 25.0241 4.64475 24.8898C4.64896 24.7555 4.60239 24.6246 4.51435 24.5232L1.82873 21.8467Z" fill="#E63946"/>
<path d="M35.3351 4.54863L32.4534 0H25.9902L26.7359 4.54863H35.3351Z" fill="#E63946"/>
<path d="M24.9125 0H22.0895L21.3438 4.54756H25.6497L24.9125 0Z" fill="#E63946"/>
<path d="M21.0089 0H14.5521L11.6758 4.54756H20.2791L21.0089 0Z" fill="#E63946"/>
<path d="M35.7709 5.61719H26.8075V9.85752C26.8075 9.99898 26.7514 10.1347 26.6515 10.2347C26.5516 10.3347 26.4161 10.3909 26.2748 10.3909H20.7299C20.5887 10.3909 20.4532 10.3347 20.3533 10.2347C20.2534 10.1347 20.1973 9.99898 20.1973 9.85752V5.61719H11.2285V24.6406H35.7709V5.61719ZM14.2241 23.0756C14.2241 23.2171 14.168 23.3528 14.0681 23.4528C13.9682 23.5528 13.8328 23.609 13.6915 23.609C13.5502 23.609 13.4147 23.5528 13.3149 23.4528C13.215 23.3528 13.1588 23.2171 13.1588 23.0756V18.2059C13.1588 18.0645 13.215 17.9288 13.3149 17.8288C13.4147 17.7287 13.5502 17.6725 13.6915 17.6725C13.8328 17.6725 13.9682 17.7287 14.0681 17.8288C14.168 17.9288 14.2241 18.0645 14.2241 18.2059V23.0756ZM17.0152 23.0756C17.0152 23.2171 16.9591 23.3528 16.8592 23.4528C16.7593 23.5528 16.6238 23.609 16.4826 23.609C16.3413 23.609 16.2058 23.5528 16.1059 23.4528C16.006 23.3528 15.9499 23.2171 15.9499 23.0756V18.2059C15.9499 18.0645 16.006 17.9288 16.1059 17.8288C16.2058 17.7287 16.3413 17.6725 16.4826 17.6725C16.6238 17.6725 16.7593 17.7287 16.8592 17.8288C16.9591 17.9288 17.0152 18.0645 17.0152 18.2059V23.0756Z" fill="#E63946"/>
<path d="M21.2637 5.61719H25.7486V9.32415H21.2637V5.61719Z" fill="#E63946"/>
<path d="M12.8083 31.254L6.17574 37.8561L6.21196 34.0596C6.21337 33.9181 6.15861 33.7819 6.05972 33.6808C5.96083 33.5798 5.8259 33.5223 5.68464 33.5208C5.54337 33.5194 5.40733 33.5743 5.30644 33.6733C5.20555 33.7723 5.14807 33.9074 5.14666 34.0489C5.14666 34.0606 5.09766 39.1565 5.09766 39.1448C5.09766 39.2862 5.15377 39.4219 5.25367 39.5219C5.35356 39.6219 5.48904 39.6781 5.63031 39.6781L10.7203 39.66C10.8616 39.66 10.9971 39.6038 11.097 39.5038C11.1968 39.4037 11.253 39.2681 11.253 39.1266C11.253 38.9852 11.1968 38.8495 11.097 38.7495C10.9971 38.6494 10.8616 38.5932 10.7203 38.5932L6.92784 38.6071L13.5615 32.0039C13.6125 31.9549 13.6532 31.8961 13.6813 31.8311C13.7094 31.7661 13.7242 31.6962 13.725 31.6254C13.7259 31.5546 13.7126 31.4843 13.686 31.4187C13.6594 31.3531 13.62 31.2934 13.5701 31.2432C13.5203 31.193 13.4609 31.1532 13.3955 31.1262C13.3302 31.0992 13.2601 31.0855 13.1894 31.0859C13.1187 31.0864 13.0487 31.1009 12.9837 31.1286C12.9186 31.1564 12.8597 31.1968 12.8104 31.2476L12.8083 31.254Z" fill="#E63946"/>
<path d="M26.7309 42.4727L24.0591 45.1684L24.0804 32.7834C24.0804 32.6419 24.0243 32.5062 23.9244 32.4062C23.8245 32.3062 23.6891 32.25 23.5478 32.25C23.4065 32.25 23.271 32.3062 23.1711 32.4062C23.0713 32.5062 23.0151 32.6419 23.0151 32.7834L22.9938 45.1641L20.3412 42.4567C20.2418 42.358 20.1077 42.3025 19.9677 42.3021C19.8278 42.3017 19.6933 42.3565 19.5934 42.4546C19.4934 42.5527 19.4361 42.6863 19.4337 42.8264C19.4313 42.9665 19.4841 43.1019 19.5806 43.2034C19.5934 43.2151 23.1579 46.8538 23.1451 46.841C23.1946 46.8909 23.2534 46.9304 23.3183 46.9574C23.3831 46.9844 23.4526 46.9983 23.5228 46.9983C23.5929 46.9983 23.6624 46.9844 23.7272 46.9574C23.7921 46.9304 23.8509 46.8909 23.9004 46.841C23.9601 46.7824 27.4766 43.2343 27.4873 43.2237C27.5869 43.1232 27.6425 42.9873 27.642 42.8458C27.6415 42.7042 27.5849 42.5687 27.4846 42.4689C27.3843 42.3692 27.2485 42.3135 27.1072 42.314C26.9659 42.3145 26.8305 42.3712 26.7309 42.4716V42.4727Z" fill="#E63946"/>
<path d="M41.8571 33.872C41.8571 33.7305 41.8009 33.5948 41.701 33.4948C41.6012 33.3948 41.4657 33.3386 41.3244 33.3386C41.1831 33.3386 41.0477 33.3948 40.9478 33.4948C40.8479 33.5948 40.7918 33.7305 40.7918 33.872L40.8056 37.6557L34.2242 31.0259C34.124 30.9284 33.9896 30.8742 33.8499 30.875C33.7102 30.8758 33.5764 30.9315 33.4774 31.0302C33.3783 31.1288 33.3219 31.2624 33.3203 31.4023C33.3188 31.5422 33.3721 31.6771 33.4689 31.7779L40.062 38.4195L36.26 38.3832C36.1187 38.382 35.9827 38.4369 35.8819 38.5361C35.7811 38.6352 35.7238 38.7704 35.7225 38.9118C35.7212 39.0533 35.7761 39.1895 35.8751 39.2904C35.9741 39.3913 36.1091 39.4487 36.2504 39.45L41.3478 39.498C41.4273 39.4988 41.5059 39.4818 41.5779 39.4483C41.65 39.4147 41.7136 39.3654 41.7642 39.3041C41.8147 39.2427 41.8509 39.1708 41.8701 39.0936C41.8893 39.0164 41.8911 38.9359 41.8752 38.858L41.8571 33.872Z" fill="#E63946"/>
<path d="M46.8448 20.6708C46.7852 20.61 43.2431 17.0897 43.2324 17.079C43.1299 16.9923 42.9985 16.9476 42.8644 16.9537C42.7304 16.9598 42.6036 17.0163 42.5094 17.112C42.4152 17.2077 42.3605 17.3355 42.3563 17.4698C42.3521 17.6041 42.3987 17.735 42.4867 17.8364L45.1723 20.5129L38.5483 20.4926C38.407 20.4926 38.2715 20.5488 38.1716 20.6489C38.0717 20.7489 38.0156 20.8846 38.0156 21.026C38.0156 21.1675 38.0717 21.3031 38.1716 21.4032C38.2715 21.5032 38.407 21.5594 38.5483 21.5594L45.1702 21.5797L42.4622 24.2348C42.3637 24.3343 42.3082 24.4687 42.3078 24.6088C42.3074 24.749 42.3621 24.8836 42.4601 24.9837C42.5581 25.0838 42.6915 25.1412 42.8314 25.1436C42.9713 25.146 43.1066 25.0931 43.2079 24.9965C43.2196 24.9837 46.8534 21.4143 46.8406 21.4271C46.8903 21.3776 46.9298 21.3186 46.9568 21.2537C46.9837 21.1888 46.9976 21.1192 46.9976 21.049C46.9976 20.9787 46.9837 20.9091 46.9568 20.8442C46.9298 20.7793 46.8903 20.7204 46.8406 20.6708H46.8448Z" fill="#E63946"/>
</g>
<defs>
<clipPath id="clip0_522_821">
<rect width="47" height="47" fill="white"/>
</clipPath>
</defs>
</svg>
