<svg width="15" height="15" viewBox="0 0 15 15" fill="none" xmlns="http://www.w3.org/2000/svg">
<path d="M14.5727 11.6289L11.1852 8.54891C11.0252 8.40317 10.8147 8.32542 10.5984 8.33211C10.3821 8.3388 10.1768 8.4294 10.0261 8.58474L8.0319 10.6356C7.5519 10.5439 6.5869 10.2431 5.59357 9.25224C4.60023 8.25808 4.2994 7.29058 4.21024 6.81391L6.2594 4.81891C6.41474 4.66818 6.50535 4.46293 6.51204 4.24658C6.51872 4.03024 6.44097 3.81978 6.29524 3.65974L3.21607 0.273077C3.07027 0.112541 2.86763 0.0151636 2.6512 0.00162649C2.43476 -0.0119106 2.22157 0.0594587 2.0569 0.200577L0.248568 1.75141C0.104494 1.89601 0.0185013 2.08845 0.00690163 2.29224C-0.00559836 2.50058 -0.243932 7.43558 3.58274 11.2639C6.92107 14.6014 11.1027 14.8456 12.2544 14.8456C12.4227 14.8456 12.5261 14.8406 12.5536 14.8389C12.7572 14.8269 12.9493 14.7406 13.0936 14.5964L14.6436 12.7872C14.7852 12.6231 14.8571 12.4101 14.8439 12.1937C14.8307 11.9772 14.7334 11.7746 14.5727 11.6289Z" fill="#424242"/>
</svg>
