<svg width="37" height="32" viewBox="0 0 37 32" fill="none" xmlns="http://www.w3.org/2000/svg">
<g clip-path="url(#clip0_522_836)">
<path d="M7.44076 28.3789C7.37184 28.3787 7.30442 28.3992 7.24704 28.4376C7.18966 28.4761 7.14491 28.5308 7.11846 28.5949C7.092 28.659 7.08504 28.7296 7.09844 28.7977C7.11185 28.8657 7.14502 28.9283 7.19376 28.9774C7.2425 29.0265 7.3046 29.0599 7.37221 29.0734C7.43982 29.0869 7.50989 29.0798 7.57353 29.0532C7.63718 29.0266 7.69154 28.9815 7.72973 28.9237C7.76791 28.8659 7.78821 28.798 7.78804 28.7286C7.78782 28.6359 7.75116 28.5471 7.68608 28.4816C7.621 28.416 7.5328 28.3791 7.44076 28.3789Z" fill="#E63946"/>
<path d="M23.7493 0H0V19.9112H23.7493V0ZM11.8742 17.9949C10.2945 17.9949 8.75024 17.5232 7.43679 16.6393C6.12333 15.7554 5.09967 14.4991 4.49528 13.0292C3.8909 11.5594 3.73294 9.94211 4.04137 8.38187C4.34981 6.82164 5.11079 5.38856 6.22807 4.2639C7.34535 3.13923 8.76874 2.3735 10.3182 2.06356C11.8677 1.75361 13.4736 1.91337 14.9329 2.52263C16.3922 3.13189 17.6393 4.16328 18.5165 5.48635C19.3936 6.80942 19.8615 8.36474 19.8608 9.95559C19.8577 12.0874 19.0151 14.1309 17.5179 15.638C16.0207 17.1451 13.9911 17.9927 11.8742 17.9949Z" fill="#E63946"/>
<path d="M7.44224 25.4609C6.7998 25.4608 6.17174 25.6525 5.6375 26.0118C5.10325 26.3711 4.68681 26.8819 4.44084 27.4795C4.19488 28.0772 4.13044 28.7349 4.25567 29.3694C4.3809 30.004 4.69018 30.5869 5.14439 31.0444C5.5986 31.5019 6.17734 31.8135 6.80742 31.9398C7.4375 32.0661 8.09061 32.0013 8.68416 31.7538C9.27771 31.5063 9.78503 31.087 10.142 30.5491C10.4989 30.0112 10.6894 29.3788 10.6894 28.7318C10.6885 27.8648 10.3462 27.0334 9.73741 26.4203C9.12866 25.8071 8.30325 25.4621 7.44224 25.4609ZM7.44224 29.9324C7.20623 29.9326 6.97548 29.8623 6.77916 29.7304C6.58285 29.5985 6.4298 29.4109 6.33937 29.1913C6.24894 28.9718 6.22519 28.7302 6.27113 28.4971C6.31707 28.264 6.43063 28.0498 6.59745 27.8817C6.76428 27.7136 6.97686 27.5991 7.20832 27.5526C7.43978 27.5062 7.67971 27.53 7.89777 27.6209C8.11583 27.7118 8.30221 27.8658 8.43335 28.0634C8.56448 28.261 8.63448 28.4933 8.63448 28.731C8.63425 29.0494 8.5086 29.3547 8.28508 29.58C8.06157 29.8052 7.75845 29.932 7.44224 29.9324Z" fill="#E63946"/>
<path d="M28.7871 25.4609C28.1447 25.4609 27.5167 25.6528 26.9826 26.0122C26.4485 26.3716 26.0321 26.8824 25.7863 27.4801C25.5405 28.0778 25.4761 28.7354 25.6015 29.3699C25.7268 30.0044 26.0361 30.5872 26.4904 31.0447C26.9446 31.5021 27.5234 31.8136 28.1534 31.9398C28.7835 32.0661 29.4366 32.0013 30.0301 31.7537C30.6236 31.5062 31.1308 31.0869 31.4877 30.549C31.8446 30.0111 32.0351 29.3787 32.0351 28.7318C32.0342 27.8646 31.6917 27.0332 31.0828 26.42C30.4739 25.8067 29.6483 25.4618 28.7871 25.4609ZM28.7871 29.9324C28.5511 29.9326 28.3203 29.8623 28.124 29.7304C27.9277 29.5985 27.7747 29.4109 27.6842 29.1913C27.5938 28.9718 27.57 28.7302 27.616 28.4971C27.6619 28.264 27.7755 28.0498 27.9423 27.8817C28.1091 27.7136 28.3217 27.5991 28.5532 27.5526C28.7846 27.5062 29.0246 27.53 29.2426 27.6209C29.4607 27.7118 29.6471 27.8658 29.7782 28.0634C29.9093 28.261 29.9793 28.4933 29.9793 28.731C29.9789 29.0492 29.8533 29.3543 29.63 29.5794C29.4067 29.8046 29.1039 29.9315 28.7879 29.9324H28.7871Z" fill="#E63946"/>
<path d="M28.7884 28.3789C28.7195 28.3787 28.6521 28.3992 28.5947 28.4376C28.5373 28.4761 28.4926 28.5308 28.4661 28.5949C28.4397 28.659 28.4327 28.7296 28.4461 28.7977C28.4595 28.8657 28.4927 28.9283 28.5414 28.9774C28.5902 29.0265 28.6523 29.0599 28.7199 29.0734C28.7875 29.0869 28.8575 29.0798 28.9212 29.0532C28.9848 29.0266 29.0392 28.9815 29.0774 28.9237C29.1156 28.8659 29.1359 28.798 29.1357 28.7286C29.1355 28.6359 29.0988 28.5471 29.0337 28.4816C28.9687 28.416 28.8805 28.3791 28.7884 28.3789Z" fill="#E63946"/>
<path d="M26.6002 19.5911V11.082H24.5943V20.3373C24.5943 20.4502 24.5498 20.5584 24.4705 20.6382C24.3913 20.718 24.2839 20.7628 24.1718 20.7628H0V26.0554L1.3925 27.4577H3.54799C3.81441 26.6291 4.33469 25.9068 5.03415 25.3945C5.7336 24.8821 6.57626 24.6062 7.44115 24.6062C8.30604 24.6062 9.1487 24.8821 9.84815 25.3945C10.5476 25.9068 11.0679 26.6291 11.3343 27.4577H24.8942C25.1832 26.5585 25.7702 25.7866 26.5571 25.2715C27.3439 24.7563 28.2826 24.5292 29.216 24.6281C30.1493 24.727 31.0205 25.146 31.6836 25.8149C32.3467 26.4837 32.7613 27.3617 32.858 28.3018H35.6464L36.9983 27.0152V20.0165H27.0227C26.9107 20.0165 26.8032 19.9717 26.724 19.8919C26.6447 19.8121 26.6002 19.7039 26.6002 19.5911Z" fill="#E63946"/>
<path d="M11.874 2.76562C10.4617 2.76563 9.08101 3.18736 7.90663 3.97749C6.73226 4.76763 5.8169 5.89069 5.27629 7.20469C4.73568 8.51868 4.59411 9.96459 4.86946 11.3596C5.14482 12.7546 5.82474 14.0361 6.82326 15.042C7.82178 16.0479 9.09405 16.733 10.4792 17.0108C11.8644 17.2886 13.3003 17.1466 14.6053 16.6026C15.9103 16.0587 17.0258 15.1373 17.8108 13.9549C18.5959 12.7726 19.0151 11.3823 19.0156 9.96003C19.0143 8.05281 18.2615 6.22406 16.9226 4.87521C15.5836 3.52637 13.7679 2.76765 11.874 2.76562ZM15.6949 7.54942L10.8998 12.3783C10.8206 12.4581 10.7131 12.5029 10.6011 12.5029C10.4891 12.5029 10.3816 12.4581 10.3024 12.3783L7.57741 9.63413C7.50045 9.55389 7.45787 9.44642 7.45883 9.33487C7.45979 9.22332 7.50422 9.11661 7.58255 9.03773C7.66089 8.95884 7.76685 8.9141 7.87762 8.91313C7.9884 8.91216 8.09511 8.95504 8.1748 9.03254L10.6015 11.4755L15.0976 6.94783C15.1772 6.87033 15.284 6.82744 15.3947 6.82841C15.5055 6.82938 15.6115 6.87413 15.6898 6.95301C15.7681 7.03189 15.8126 7.1386 15.8135 7.25015C15.8145 7.3617 15.7719 7.46917 15.6949 7.54942Z" fill="#E63946"/>
<path d="M27.4453 11.0859V19.1695H36.9993V17.1954L31.8222 11.0859H27.4453Z" fill="#E63946"/>
</g>
<defs>
<clipPath id="clip0_522_836">
<rect width="37" height="32" fill="white"/>
</clipPath>
</defs>
</svg>
