<svg width="40" height="40" viewBox="0 0 40 40" fill="none" xmlns="http://www.w3.org/2000/svg">
<rect width="40" height="40" rx="20" fill="#E63946"/>
<path d="M8.17969 21.3085V14.7422H31.8179V21.3085C31.8179 26.2608 31.8179 28.7376 30.2788 30.2755C28.7397 31.8133 26.2642 31.8146 21.312 31.8146H18.6855C13.7333 31.8146 11.2566 31.8146 9.7188 30.2755C8.181 28.7363 8.17969 26.2608 8.17969 21.3085Z" stroke="white" stroke-linecap="round" stroke-linejoin="round"/>
<path d="M8.17969 14.746L9.31563 12.2206C10.1981 10.2612 10.6381 9.28283 11.5311 8.73126C12.4241 8.17969 13.5705 8.17969 15.8621 8.17969H24.1355C26.4271 8.17969 27.5722 8.17969 28.4665 8.73126C29.3595 9.28283 29.7994 10.2612 30.6819 12.2206L31.8179 14.746M19.9988 14.746V8.17969" stroke="white" stroke-linecap="round"/>
<path d="M15.4027 21.9703H22.6255C23.3221 21.9703 23.9901 22.247 24.4827 22.7396C24.9752 23.2321 25.252 23.9002 25.252 24.5968C25.252 25.2934 24.9752 25.9615 24.4827 26.454C23.9901 26.9466 23.3221 27.2233 22.6255 27.2233H21.3123M17.3726 19.3438L14.7461 21.9703L17.3726 24.5968" stroke="white" stroke-linecap="round" stroke-linejoin="round"/>
</svg>
