<svg width="47" height="47" viewBox="0 0 47 47" fill="none" xmlns="http://www.w3.org/2000/svg">
<g clip-path="url(#clip0_522_805)">
<path d="M21.6914 17.6484H25.3102V20.6131H21.6914V17.6484Z" fill="#E63946"/>
<path d="M21.342 12.9648H16.0544L13.7285 16.6325H20.749L21.342 12.9648Z" fill="#E63946"/>
<path d="M24.6206 12.9648H22.3793L21.7812 16.6325H25.2268L24.6206 12.9648Z" fill="#E63946"/>
<path d="M33.2727 16.6286L30.9468 12.9609H25.6582L26.2573 16.6286H33.2727Z" fill="#E63946"/>
<path d="M13.3125 30.6875H33.6884V33.3924H13.3125V30.6875Z" fill="#E63946"/>
<path d="M26.3286 21.1225C26.3286 21.2576 26.2749 21.3872 26.1794 21.4827C26.0839 21.5783 25.9543 21.6319 25.8192 21.6319H21.1817C21.0466 21.6319 20.917 21.5783 20.8215 21.4827C20.7259 21.3872 20.6723 21.2576 20.6723 21.1225V17.6484H13.3125V29.6702H33.6884V17.6484H26.3286V21.1225Z" fill="#E63946"/>
<path d="M24.009 5.0359V0.509397C24.009 0.374296 23.9554 0.244729 23.8598 0.149199C23.7643 0.0536684 23.6347 0 23.4996 0C23.3645 0 23.235 0.0536684 23.1394 0.149199C23.0439 0.244729 22.9902 0.374296 22.9902 0.509397V5.0359C23.3478 5.02673 23.6514 5.02673 24.009 5.0359Z" fill="#E63946"/>
<path d="M5.0359 22.9922H0.509397C0.374296 22.9922 0.244729 23.0459 0.149199 23.1414C0.0536684 23.2369 0 23.3665 0 23.5016C0 23.6367 0.0536684 23.7663 0.149199 23.8618C0.244729 23.9573 0.374296 24.011 0.509397 24.011H5.0359C5.02673 23.6534 5.02673 23.3498 5.0359 22.9922Z" fill="#E63946"/>
<path d="M22.9902 41.9648V46.4924C22.9902 46.6275 23.0439 46.757 23.1394 46.8526C23.235 46.9481 23.3645 47.0018 23.4996 47.0018C23.6347 47.0018 23.7643 46.9481 23.8598 46.8526C23.9554 46.757 24.009 46.6275 24.009 46.4924V41.9648C23.8399 41.9648 23.6698 41.973 23.4996 41.973C23.3295 41.973 23.1594 41.9699 22.9902 41.9648Z" fill="#E63946"/>
<path d="M46.4913 22.9922H41.9648C41.974 23.3498 41.974 23.6534 41.9648 24.011H46.4913C46.6264 24.011 46.756 23.9573 46.8515 23.8618C46.9471 23.7663 47.0007 23.6367 47.0007 23.5016C47.0007 23.3665 46.9471 23.2369 46.8515 23.1414C46.756 23.0459 46.6264 22.9922 46.4913 22.9922Z" fill="#E63946"/>
<path d="M38.1979 23.4998C38.1979 23.3647 38.2516 23.2351 38.3471 23.1396C38.4426 23.044 38.5722 22.9904 38.7073 22.9904H41.9674C41.6975 13.21 33.7896 5.30208 24.0092 5.03516V8.2953C24.0092 8.4304 23.9555 8.55996 23.86 8.65549C23.7644 8.75102 23.6349 8.80469 23.4998 8.80469C23.3647 8.80469 23.2351 8.75102 23.1396 8.65549C23.044 8.55996 22.9904 8.4304 22.9904 8.2953V5.03516C13.21 5.30208 5.30208 13.21 5.03516 22.9904H8.2953C8.4304 22.9904 8.55996 23.044 8.65549 23.1396C8.75102 23.2351 8.80469 23.3647 8.80469 23.4998C8.80469 23.6349 8.75102 23.7644 8.65549 23.86C8.55996 23.9555 8.4304 24.0092 8.2953 24.0092H5.03516C5.30208 33.7896 13.21 41.6975 22.9904 41.9634V38.7032C22.9904 38.5681 23.044 38.4386 23.1396 38.343C23.2351 38.2475 23.3647 38.1938 23.4998 38.1938C23.6349 38.1938 23.7644 38.2475 23.86 38.343C23.9555 38.4386 24.0092 38.5681 24.0092 38.7032V41.9634C33.7896 41.6975 41.6975 33.7896 41.9634 24.0092H38.7032C38.5681 24.0092 38.4386 23.9555 38.343 23.86C38.2475 23.7644 38.1938 23.6349 38.1938 23.4998H38.1979ZM34.7065 33.9037C34.7065 34.0388 34.6528 34.1684 34.5573 34.2639C34.4618 34.3594 34.3322 34.4131 34.1971 34.4131H12.8024C12.6673 34.4131 12.5378 34.3594 12.4422 34.2639C12.3467 34.1684 12.293 34.0388 12.293 33.9037C12.293 15.8914 12.2849 17.118 12.3073 17.0233C12.3145 16.9934 12.324 16.9641 12.3358 16.9357C12.3684 16.8613 12.183 17.17 15.3443 12.182C15.3903 12.1096 15.4538 12.05 15.529 12.0086C15.6041 11.9673 15.6885 11.9457 15.7743 11.9456H31.2253C31.311 11.9457 31.3954 11.9673 31.4706 12.0086C31.5457 12.05 31.6092 12.1096 31.6552 12.182C34.8257 17.1833 34.6311 16.8613 34.6637 16.9357C34.6914 17.0001 34.7063 17.0693 34.7075 17.1394L34.7065 33.9037Z" fill="#E63946"/>
</g>
<defs>
<clipPath id="clip0_522_805">
<rect width="47" height="47" fill="white"/>
</clipPath>
</defs>
</svg>
